<svg xmlns="http://www.w3.org/2000/svg" xmlns:xlink="http://www.w3.org/1999/xlink" version="1.1" x="0px" y="0px" viewBox="0 0 32 40" style="enable-background:new 0 0 32 32;" xml:space="preserve"><style type="text/css">
	.st0{display:none;}
	.st1{display:inline;}
</style><g><path d="M6.625,1.1H2.746C1.839,1.1,1.1,1.839,1.1,2.747v3.878c0,0.497,0.403,0.9,0.9,0.9s0.9-0.403,0.9-0.9V2.9h3.725   c0.497,0,0.9-0.403,0.9-0.9S7.122,1.1,6.625,1.1z"/><path d="M29.254,1.1h-3.879c-0.497,0-0.9,0.403-0.9,0.9s0.403,0.9,0.9,0.9H29.1v3.725c0,0.497,0.403,0.9,0.9,0.9s0.9-0.403,0.9-0.9   V2.747C30.9,1.839,30.161,1.1,29.254,1.1z"/><path d="M6.625,29.1H2.9v-3.725c0-0.497-0.403-0.9-0.9-0.9s-0.9,0.403-0.9,0.9v3.878c0,0.908,0.739,1.646,1.646,1.646h3.879   c0.497,0,0.9-0.403,0.9-0.9S7.122,29.1,6.625,29.1z"/><path d="M30,24.475c-0.497,0-0.9,0.403-0.9,0.9V29.1h-3.725c-0.497,0-0.9,0.403-0.9,0.9s0.403,0.9,0.9,0.9h3.879   c0.907,0,1.646-0.739,1.646-1.646v-3.878C30.9,24.878,30.497,24.475,30,24.475z"/><circle cx="16" cy="14.33" r="4.955"/><path d="M21.958,23.747c0.428,0,0.672-0.519,0.374-0.827c-1.344-1.39-3.674-2.315-6.332-2.315s-4.989,0.924-6.332,2.315   c-0.298,0.308-0.054,0.827,0.374,0.827H21.958z"/></g><text x="0" y="47" fill="#000000" font-size="5px" font-weight="bold" font-family="'Helvetica Neue', Helvetica, Arial-Unicode, Arial, Sans-serif">Created by Rikas Dzihab</text><text x="0" y="52" fill="#000000" font-size="5px" font-weight="bold" font-family="'Helvetica Neue', Helvetica, Arial-Unicode, Arial, Sans-serif">from the Noun Project</text></svg>